<mxfile host="app.diagrams.net" agent="Mozilla/5.0 (Windows NT 10.0; Win64; x64) AppleWebKit/537.36 (KHTML, like Gecko) Chrome/130.0.0.0 Safari/537.36" version="24.8.4">
  <diagram name="Σελίδα-1" id="R5R1LqHdFb_YcKPFQvaV">
    <mxGraphModel grid="1" page="1" gridSize="10" guides="1" tooltips="1" connect="1" arrows="1" fold="1" pageScale="1" pageWidth="827" pageHeight="1169" math="0" shadow="0">
      <root>
        <mxCell id="0" />
        <mxCell id="1" parent="0" />
        <mxCell id="xQYQkuUz87T9dujUKm1J-2" value="" style="whiteSpace=wrap;html=1;aspect=fixed;fillStyle=dashed;fillColor=none;" vertex="1" parent="1">
          <mxGeometry x="154" y="512" width="520" height="520" as="geometry" />
        </mxCell>
        <mxCell id="4DwRFRhf4yVtMLSK5ZwL-91" value="" style="whiteSpace=wrap;html=1;aspect=fixed;fillStyle=dashed;fillColor=none;" vertex="1" parent="1">
          <mxGeometry x="272.49" y="710" width="283" height="283" as="geometry" />
        </mxCell>
        <mxCell id="xQYQkuUz87T9dujUKm1J-1" value="App Services" style="image;aspect=fixed;html=1;points=[];align=center;fontSize=12;image=img/lib/azure2/app_services/App_Services.svg;" vertex="1" parent="1">
          <mxGeometry x="288.66" y="580" width="68" height="68" as="geometry" />
        </mxCell>
        <mxCell id="xQYQkuUz87T9dujUKm1J-3" value="App Service Plans" style="image;aspect=fixed;html=1;points=[];align=center;fontSize=12;image=img/lib/azure2/app_services/App_Service_Plans.svg;" vertex="1" parent="1">
          <mxGeometry x="589.99" y="325" width="58" height="58" as="geometry" />
        </mxCell>
        <mxCell id="4DwRFRhf4yVtMLSK5ZwL-96" style="edgeStyle=orthogonalEdgeStyle;rounded=0;orthogonalLoop=1;jettySize=auto;html=1;startArrow=classic;startFill=1;" edge="1" parent="1" source="xQYQkuUz87T9dujUKm1J-7" target="X2yCROjixZcvzqsDBENi-22">
          <mxGeometry relative="1" as="geometry" />
        </mxCell>
        <mxCell id="xQYQkuUz87T9dujUKm1J-7" value="Blob Storage" style="image;sketch=0;aspect=fixed;html=1;points=[];align=center;fontSize=12;image=img/lib/mscae/BlobBlock.svg;" vertex="1" parent="1">
          <mxGeometry x="447.15999999999997" y="807" width="83.34" height="70" as="geometry" />
        </mxCell>
        <mxCell id="xQYQkuUz87T9dujUKm1J-5" value="Azure Functions" style="image;aspect=fixed;html=1;points=[];align=center;fontSize=12;image=img/lib/azure2/compute/Function_Apps.svg;" vertex="1" parent="1">
          <mxGeometry x="479.99" y="584" width="68" height="60" as="geometry" />
        </mxCell>
        <mxCell id="frYdqMMXHWX0znkMd9CF-19" style="edgeStyle=orthogonalEdgeStyle;rounded=0;orthogonalLoop=1;jettySize=auto;html=1;entryX=0.5;entryY=1;entryDx=0;entryDy=0;" edge="1" parent="1" source="xQYQkuUz87T9dujUKm1J-4" target="xQYQkuUz87T9dujUKm1J-10">
          <mxGeometry relative="1" as="geometry" />
        </mxCell>
        <mxCell id="4DwRFRhf4yVtMLSK5ZwL-105" value="" style="edgeStyle=orthogonalEdgeStyle;rounded=0;orthogonalLoop=1;jettySize=auto;html=1;startArrow=classic;startFill=1;" edge="1" parent="1" source="xQYQkuUz87T9dujUKm1J-4" target="EZizBpy8AoYRGC46wWAG-4">
          <mxGeometry relative="1" as="geometry" />
        </mxCell>
        <mxCell id="xQYQkuUz87T9dujUKm1J-4" value="EntraID Identities" style="image;aspect=fixed;html=1;points=[];align=center;fontSize=12;image=img/lib/azure2/identity/Entra_Managed_Identities.svg;" vertex="1" parent="1">
          <mxGeometry x="380" y="220" width="68" height="60.440000000000005" as="geometry" />
        </mxCell>
        <mxCell id="4DwRFRhf4yVtMLSK5ZwL-95" style="edgeStyle=orthogonalEdgeStyle;rounded=0;orthogonalLoop=1;jettySize=auto;html=1;startArrow=classic;startFill=1;" edge="1" parent="1" source="X2yCROjixZcvzqsDBENi-14" target="X2yCROjixZcvzqsDBENi-22">
          <mxGeometry relative="1" as="geometry" />
        </mxCell>
        <mxCell id="X2yCROjixZcvzqsDBENi-14" value="Azure SQL Database" style="image;aspect=fixed;html=1;points=[];align=center;fontSize=12;image=img/lib/azure2/databases/SQL_Database.svg;" vertex="1" parent="1">
          <mxGeometry x="328.15999999999997" y="810" width="48" height="64" as="geometry" />
        </mxCell>
        <mxCell id="xQYQkuUz87T9dujUKm1J-10" value="Internet" style="image;aspect=fixed;perimeter=ellipsePerimeter;html=1;align=center;shadow=0;dashed=0;spacingTop=3;image=img/lib/active_directory/internet_globe.svg;" vertex="1" parent="1">
          <mxGeometry x="389" y="120" width="50" height="50" as="geometry" />
        </mxCell>
        <mxCell id="4DwRFRhf4yVtMLSK5ZwL-85" value="WAF" style="image;aspect=fixed;html=1;points=[];align=center;fontSize=12;image=img/lib/azure2/networking/Firewalls.svg;" vertex="1" parent="1">
          <mxGeometry x="378.49999999999994" y="512" width="71" height="60" as="geometry" />
        </mxCell>
        <mxCell id="4DwRFRhf4yVtMLSK5ZwL-86" value="" style="edgeStyle=orthogonalEdgeStyle;rounded=0;orthogonalLoop=1;jettySize=auto;html=1;startArrow=classic;startFill=1;endArrow=classic;endFill=1;" edge="1" parent="1" source="xQYQkuUz87T9dujUKm1J-10" target="xQYQkuUz87T9dujUKm1J-4">
          <mxGeometry relative="1" as="geometry" />
        </mxCell>
        <mxCell id="4DwRFRhf4yVtMLSK5ZwL-88" style="edgeStyle=orthogonalEdgeStyle;rounded=0;orthogonalLoop=1;jettySize=auto;html=1;startArrow=classic;startFill=1;" edge="1" parent="1" source="4DwRFRhf4yVtMLSK5ZwL-85" target="xQYQkuUz87T9dujUKm1J-5">
          <mxGeometry relative="1" as="geometry">
            <mxPoint x="446.99" y="552" as="targetPoint" />
          </mxGeometry>
        </mxCell>
        <mxCell id="4DwRFRhf4yVtMLSK5ZwL-89" style="edgeStyle=orthogonalEdgeStyle;rounded=0;orthogonalLoop=1;jettySize=auto;html=1;entryX=0.459;entryY=-0.005;entryDx=0;entryDy=0;entryPerimeter=0;startArrow=classic;startFill=1;" edge="1" parent="1" source="4DwRFRhf4yVtMLSK5ZwL-85" target="xQYQkuUz87T9dujUKm1J-1">
          <mxGeometry relative="1" as="geometry" />
        </mxCell>
        <mxCell id="X2yCROjixZcvzqsDBENi-22" value="Virtual Network&lt;div&gt;&lt;br&gt;&lt;/div&gt;" style="verticalLabelPosition=bottom;html=1;verticalAlign=top;align=center;strokeColor=none;fillColor=#00BEF2;shape=mxgraph.azure.virtual_network;pointerEvents=1;" vertex="1" parent="1">
          <mxGeometry x="379.99" y="680" width="65.67" height="30" as="geometry" />
        </mxCell>
        <mxCell id="4DwRFRhf4yVtMLSK5ZwL-97" style="edgeStyle=orthogonalEdgeStyle;rounded=0;orthogonalLoop=1;jettySize=auto;html=1;exitX=0;exitY=0.5;exitDx=0;exitDy=0;exitPerimeter=0;entryX=1;entryY=0.5;entryDx=0;entryDy=0;startArrow=classic;startFill=1;" edge="1" parent="1" source="frYdqMMXHWX0znkMd9CF-17" target="xQYQkuUz87T9dujUKm1J-10">
          <mxGeometry relative="1" as="geometry" />
        </mxCell>
        <mxCell id="frYdqMMXHWX0znkMd9CF-17" value="Employees" style="verticalLabelPosition=bottom;html=1;verticalAlign=top;align=center;strokeColor=none;fillColor=#00BEF2;shape=mxgraph.azure.computer;pointerEvents=1;" vertex="1" parent="1">
          <mxGeometry x="513.99" y="122.5" width="50" height="45" as="geometry" />
        </mxCell>
        <mxCell id="4DwRFRhf4yVtMLSK5ZwL-104" style="edgeStyle=orthogonalEdgeStyle;rounded=0;orthogonalLoop=1;jettySize=auto;html=1;startArrow=classic;startFill=1;" edge="1" parent="1" source="EZizBpy8AoYRGC46wWAG-2" target="X2yCROjixZcvzqsDBENi-22">
          <mxGeometry relative="1" as="geometry" />
        </mxCell>
        <mxCell id="EZizBpy8AoYRGC46wWAG-2" value="Archive Storage" style="image;sketch=0;aspect=fixed;html=1;points=[];align=center;fontSize=12;image=img/lib/mscae/Archive_Storage.svg;" vertex="1" parent="1">
          <mxGeometry x="387.83" y="920" width="50" height="48" as="geometry" />
        </mxCell>
        <mxCell id="4DwRFRhf4yVtMLSK5ZwL-99" style="edgeStyle=orthogonalEdgeStyle;rounded=0;orthogonalLoop=1;jettySize=auto;html=1;startArrow=classic;startFill=1;" edge="1" parent="1" source="4DwRFRhf4yVtMLSK5ZwL-98">
          <mxGeometry relative="1" as="geometry">
            <mxPoint x="411.99" y="510" as="targetPoint" />
          </mxGeometry>
        </mxCell>
        <mxCell id="4DwRFRhf4yVtMLSK5ZwL-98" value="Internet" style="image;aspect=fixed;perimeter=ellipsePerimeter;html=1;align=center;shadow=0;dashed=0;spacingTop=3;image=img/lib/active_directory/internet_globe.svg;" vertex="1" parent="1">
          <mxGeometry x="238.66000000000003" y="408" width="50" height="50" as="geometry" />
        </mxCell>
        <mxCell id="4DwRFRhf4yVtMLSK5ZwL-101" style="edgeStyle=orthogonalEdgeStyle;rounded=0;orthogonalLoop=1;jettySize=auto;html=1;entryX=0.5;entryY=0;entryDx=0;entryDy=0;startArrow=classic;startFill=1;" edge="1" parent="1" source="4DwRFRhf4yVtMLSK5ZwL-100" target="4DwRFRhf4yVtMLSK5ZwL-98">
          <mxGeometry relative="1" as="geometry" />
        </mxCell>
        <mxCell id="4DwRFRhf4yVtMLSK5ZwL-100" value="Visitors" style="image;aspect=fixed;html=1;points=[];align=center;fontSize=12;image=img/lib/azure2/identity/Users.svg;" vertex="1" parent="1">
          <mxGeometry x="231.66000000000003" y="260" width="64" height="70" as="geometry" />
        </mxCell>
        <mxCell id="lHtf9mgvElAelnv6T5QU-14" value="" style="endArrow=classic;startArrow=classic;html=1;rounded=0;" edge="1" parent="1" source="EZizBpy8AoYRGC46wWAG-4" target="xQYQkuUz87T9dujUKm1J-4">
          <mxGeometry width="50" height="50" relative="1" as="geometry">
            <mxPoint x="409.99" y="510" as="sourcePoint" />
            <mxPoint x="449.99" y="290" as="targetPoint" />
          </mxGeometry>
        </mxCell>
        <mxCell id="4DwRFRhf4yVtMLSK5ZwL-107" style="edgeStyle=orthogonalEdgeStyle;rounded=0;orthogonalLoop=1;jettySize=auto;html=1;startArrow=classic;startFill=1;" edge="1" parent="1">
          <mxGeometry relative="1" as="geometry">
            <mxPoint x="412.58" y="510.0000000000002" as="targetPoint" />
            <mxPoint x="412.57" y="383" as="sourcePoint" />
          </mxGeometry>
        </mxCell>
        <mxCell id="EZizBpy8AoYRGC46wWAG-4" value="2FA" style="image;aspect=fixed;html=1;points=[];align=center;fontSize=12;image=img/lib/azure2/identity/Multi_Factor_Authentication.svg;" vertex="1" parent="1">
          <mxGeometry x="379.99999999999994" y="315" width="68" height="68" as="geometry" />
        </mxCell>
        <mxCell id="4DwRFRhf4yVtMLSK5ZwL-108" style="edgeStyle=orthogonalEdgeStyle;rounded=0;orthogonalLoop=1;jettySize=auto;html=1;entryX=0.5;entryY=0;entryDx=0;entryDy=0;entryPerimeter=0;" edge="1" parent="1" source="xQYQkuUz87T9dujUKm1J-5" target="X2yCROjixZcvzqsDBENi-22">
          <mxGeometry relative="1" as="geometry" />
        </mxCell>
        <mxCell id="frYdqMMXHWX0znkMd9CF-20" style="edgeStyle=orthogonalEdgeStyle;rounded=0;orthogonalLoop=1;jettySize=auto;html=1;entryX=0.5;entryY=0;entryDx=0;entryDy=0;entryPerimeter=0;" edge="1" parent="1" source="xQYQkuUz87T9dujUKm1J-1" target="X2yCROjixZcvzqsDBENi-22">
          <mxGeometry relative="1" as="geometry" />
        </mxCell>
      </root>
    </mxGraphModel>
  </diagram>
</mxfile>
